#!OML:ASF F:\VICON\USERDATA\INSTALL\rory3\rory3.ASF
:FULLY-SPECIFIED
:DEGREES
1849
root -1.05869 10.0144 -5.10211 1.46998 3.50994 0.904507
lowerback 36.0548 -0.524948 -4.81601
upperback 6.99231 -2.52127 -1.00883
thorax -10.0527 -1.04444 2.4445
lowerneck -13.3009 -5.47241 -8.76081
upperneck -8.27542 -5.90208 11.1142
head 0.295732 -2.67189 4.54127
rclavicle -4.13472e-014 -2.06736e-014
rhumerus 0.193945 -12.1129 -52.5127
rradius 96.3497
rwrist 38.9507
rhand -35.5474 -9.16907
rfingers 7.12502
rthumb -8.67304 -38.9709
lclavicle -4.13472e-014 -2.06736e-014
lhumerus -5.41318 2.3609 50.6552
lradius 82.8914
lwrist 9.63259
lhand -43.2121 8.69883
lfingers 7.12502
lthumb -16.0626 38.0531
rfemur -85.0133 -31.9981 10.0718
rtibia 128.318
rfoot -35.5623 -10.2448
rtoes -5.99623
lfemur -83.8553 20.7232 -18.1015
ltibia 129.176
lfoot -40.6075 11.2906
ltoes -16.1478
1850
root -1.06248 10.0586 -5.09858 1.53493 3.56008 0.735864
lowerback 35.99 -0.594006 -4.63416
upperback 6.97398 -2.5339 -0.975275
thorax -10.0566 -1.0539 2.38979
lowerneck -13.5291 -5.50857 -8.74343
upperneck -8.23914 -5.93843 11.1022
head 0.343029 -2.68391 4.52777
rclavicle 4.37326e-015 -1.11319e-014
rhumerus 0.0954367 -12.0019 -52.6339
rradius 96.3395
rwrist 38.9705
rhand -35.6225 -9.37253
rfingers 7.12502
rthumb -8.74552 -39.1713
lclavicle 4.37326e-015 -1.11319e-014
lhumerus -5.78352 2.40542 50.8244
lradius 83.0112
lwrist 9.26039
lhand -43.2024 9.01844
lfingers 7.12502
lthumb -16.0532 38.3734
rfemur -84.6497 -31.6217 10.2011
rtibia 128.001
rfoot -35.7084 -10.2815
rtoes -5.67113
lfemur -83.6799 20.5522 -17.8524
ltibia 128.867
lfoot -40.5336 11.2333
ltoes -15.9103
1851
root -1.06549 10.1086 -5.09124 1.5473 3.52238 0.734603
lowerback 35.9197 -0.589522 -4.63074
upperback 6.9677 -2.52591 -0.990223
thorax -10.0392 -1.05098 2.36802
lowerneck -13.6535 -5.55423 -8.87989
upperneck -8.26381 -5.96679 11.2869
head 0.369958 -2.68972 4.60324
rclavicle -2.34566e-014 2.22639e-014
rhumerus -0.12352 -11.8863 -52.7057
rradius 96.3895
rwrist 39.0152
rhand -35.6681 -9.42244
rfingers 7.12502
rthumb -8.78951 -39.2194
lclavicle -2.34566e-014 2.22639e-014
lhumerus -6.1374 2.4299 50.9576
lradius 83.1072
lwrist 9.00466
lhand -43.2032 9.10228
lfingers 7.12502
lthumb -16.0541 38.4572
rfemur -84.2059 -31.1817 10.1142
rtibia 127.617
rfoot -35.7467 -10.3529
rtoes -5.40118
lfemur -83.2816 20.3725 -17.7436
ltibia 128.487
lfoot -40.5325 11.2121
ltoes -15.4955
1852
root -1.0685 10.1657 -5.08215 1.58359 3.48176 0.795108
lowerback 35.8185 -0.588946 -4.6551
upperback 6.93309 -2.53732 -1.0434
thorax -10.0411 -1.05522 2.32768
lowerneck -13.7388 -5.57829 -8.88646
upperneck -8.28526 -5.98925 11.3416
head 0.381445 -2.69805 4.61858
rclavicle -1.86858e-014 8.74653e-015
rhumerus -0.483471 -11.7427 -52.7387
rradius 96.5185
rwrist 38.8878
rhand -35.8088 -9.35387
rfingers 7.12502
rthumb -8.92527 -39.1451
lclavicle -1.86858e-014 8.74653e-015
lhumerus -6.54958 2.3834 51.0363
lradius 83.245
lwrist 8.78168
lhand -43.1918 9.13184
lfingers 7.12502
lthumb -16.043 38.4876
rfemur -83.7758 -30.7263 10.0227
rtibia 127.16
rfoot -35.6869 -10.7831
rtoes -5.81427
lfemur -82.8475 20.1307 -17.7229
ltibia 128.047
lfoot -40.5025 11.3975
ltoes -15.697
1853
root -1.06953 10.2296 -5.07201 1.58215 3.51278 0.822782
lowerback 35.7897 -0.631638 -4.59023
upperback 6.89238 -2.57388 -1.09681
thorax -10.0797 -1.0713 2.25145
lowerneck -13.8711 -5.5922 -8.77623
upperneck -8.2814 -6.01446 11.2739
head 0.398288 -2.71024 4.57572
rclavicle 1.03368e-014 -5.56597e-015
rhumerus -0.881384 -11.6298 -52.7554
rradius 96.6697
rwrist 38.6796
rhand -36.0027 -9.20618
rfingers 7.12502
rthumb -9.11239 -38.9893
lclavicle 1.03368e-014 -5.56597e-015
lhumerus -6.95174 2.33938 51.089
lradius 83.3851
lwrist 8.62047
lhand -43.1496 8.93412
lfingers 7.12502
lthumb -16.0024 38.2932
rfemur -83.1768 -30.3828 9.89851
rtibia 126.685
rfoot -35.6662 -11.2923
rtoes -6.79092
lfemur -82.3285 19.7802 -17.6444
ltibia 127.574
lfoot -40.5478 11.4594
ltoes -15.161
1854
root -1.06922 10.2996 -5.0631 1.56859 3.59685 0.912199
lowerback 35.8125 -0.70604 -4.55493
upperback 6.83919 -2.66627 -1.17114
thorax -10.1478 -1.11089 2.1911
lowerneck -13.8117 -5.56636 -8.76122
upperneck -8.43408 -5.97522 11.3275
head 0.342736 -2.69374 4.59609
rclavicle 1.19271e-015 -1.51076e-014
rhumerus -1.22283 -11.4985 -52.8003
rradius 96.7877
rwrist 38.5106
rhand -36.066 -9.22741
rfingers 7.12502
rthumb -9.1735 -39.0079
lclavicle 1.19271e-015 -1.51076e-014
lhumerus -7.28444 2.29499 51.0356
lradius 83.4391
lwrist 8.62053
lhand -43.2322 8.74529
lfingers 7.12502
lthumb -16.082 38.098
rfemur -82.4909 -30.1553 9.65201
rtibia 126.225
rfoot -35.8335 -11.5778
rtoes -7.9552
lfemur -81.745 19.2899 -17.6289
ltibia 127.039
lfoot -40.6201 11.5035
ltoes -14.6433
1855
root -1.07163 10.3717 -5.05632 1.61917 3.6347 0.964376
lowerback 35.7812 -0.733724 -4.57616
upperback 6.7732 -2.71237 -1.19157
thorax -10.2076 -1.12871 2.19945
lowerneck -13.6847 -5.58775 -8.76415
upperneck -8.64326 -5.99937 11.3521
head 0.265434 -2.71161 4.60881
rclavicle 2.46493e-014 1.82882e-014
rhumerus -1.55981 -11.369 -52.7827
rradius 96.9372
rwrist 38.3686
rhand -36.0971 -9.65602
rfingers 7.12502
rthumb -9.20351 -39.4352
lclavicle 2.46493e-014 1.82882e-014
lhumerus -7.64409 2.31788 51.0436
lradius 83.5022
lwrist 8.54695
lhand -43.3822 8.69804
lfingers 7.12502
lthumb -16.2264 38.039
rfemur -81.8814 -29.864 9.45809
rtibia 125.793
rfoot -36.3549 -11.2344
rtoes -8.29173
lfemur -81.2558 18.8655 -17.5992
ltibia 126.462
lfoot -40.5622 11.734
ltoes -14.6691
1856
root -1.07538 10.4492 -5.05016 1.7118 3.67608 0.98226
lowerback 35.7249 -0.75164 -4.58266
upperback 6.69825 -2.73641 -1.18361
thorax -10.2689 -1.13674 2.22168
lowerneck -13.6752 -5.64864 -8.79037
upperneck -8.74189 -6.07163 11.3855
head 0.244129 -2.74836 4.62091
rclavicle 7.95139e-016 -5.56597e-015
rhumerus -1.93222 -11.2476 -52.6846
rradius 97.076
rwrist 38.2785
rhand -36.3279 -10.0989
rfingers 7.12502
rthumb -9.42623 -39.8681
lclavicle 7.95139e-016 -5.56597e-015
lhumerus -8.12442 2.37872 51.0854
lradius 83.7148
lwrist 8.5405
lhand -43.5485 8.53793
lfingers 7.12502
lthumb -16.3865 37.8657
rfemur -81.2965 -29.4628 9.36037
rtibia 125.274
rfoot -36.6782 -11.0704
rtoes -8.31366
lfemur -80.8294 18.4706 -17.5551
ltibia 125.832
lfoot -40.3571 12.0505
ltoes -14.9237
